<svg xmlns="http://www.w3.org/2000/svg" width="44" height="64" fill="none"><path fill="#000" d="M21.9 41a1 1 0 0 1-.8-.4l-7-7.9a5.4 5.4 0 0 1 4.4-8.7c1.3 0 2.5.5 3.5 1.3a5.5 5.5 0 0 1 9 4.1c0 1.3-.5 2.5-1.3 3.4l-7 7.9c-.2.2-.4.3-.8.3Zm-6-9.5 6.1 6.9 6.2-7c.5-.5.7-1.2.7-2 0-1.8-1.5-3.3-3.3-3.3-1 0-2 .5-2.7 1.3-.3.3-.6.4-.9.4-.3 0-.6-.2-.8-.4a3.7 3.7 0 0 0-2.7-1.3 3.3 3.3 0 0 0-3.3 3.3c-.1.9.3 1.6.7 2.1-.1 0-.1 0 0 0Z"/><rect width="20" height="20" x="20" y="11" fill="#7DB54F" rx="10"/><path fill="#fff" d="M25.1 23.3h1.4v-4.9l.1-.6-.4.5-1 .8-.4-.5 2.2-1.7h.3v6.4h1.4v.7H25v-.7Zm8.9-4.7-.2 1-.5 1.2a10.9 10.9 0 0 1-1.5 2.1l-.5.4H34v.7h-4v-.3a33.1 33.1 0 0 0 1.8-2.2 9.7 9.7 0 0 0 1-1.9c.2-.3.2-.6.2-.9 0-.3 0-.6-.3-.8-.1-.2-.4-.3-.8-.3l-.7.1-.7.4-.3-.6.8-.4a3 3 0 0 1 1-.2l.8.1a1.5 1.5 0 0 1 1 1v.6Z"/></svg>